<svg width="118" height="22" viewBox="0 0 118 22" fill="none" xmlns="http://www.w3.org/2000/svg">
<path d="M9.248 1.296H13.216L15.616 16.88L17.408 1.296H21.76L18.4 22H13.312L11.232 9.296L9.152 22H4.064L0.704 1.296H5.056L6.848 16.88L9.248 1.296ZM28.321 13.872V22H23.841V1.296H28.321V9.968H31.873V1.296H36.353V22H31.873V13.872H28.321ZM47.3997 0.976C50.0451 0.976 51.3677 2.384 51.3677 5.2V22H46.8877V15.056H43.6557V22H39.1757V5.2C39.1757 2.384 40.4984 0.976 43.1437 0.976H47.3997ZM43.6557 11.6H46.8877V4.656C46.8877 4.48533 46.8237 4.336 46.6957 4.208C46.5891 4.08 46.4504 4.016 46.2797 4.016H44.2637C44.0931 4.016 43.9437 4.08 43.8157 4.208C43.7091 4.336 43.6557 4.48533 43.6557 4.656V11.6ZM53.139 5.104V1.296H64.339V5.104H60.979V22H56.499V5.104H53.139ZM70.3855 14.896V18.32H77.2975V22H66.2895V14.544C66.2895 11.728 67.6122 10.32 70.2575 10.32H72.8175C72.9882 10.32 73.1268 10.256 73.2335 10.128C73.3615 10 73.4255 9.85067 73.4255 9.68V5.104C73.4255 4.93333 73.3615 4.784 73.2335 4.656C73.1268 4.528 72.9882 4.464 72.8175 4.464H70.9295C70.7588 4.464 70.6095 4.528 70.4815 4.656C70.3748 4.784 70.3215 4.93333 70.3215 5.104V6.736H66.0655V5.2C66.0655 2.384 67.3882 0.976 70.0335 0.976H73.5855C76.2308 0.976 77.5535 2.384 77.5535 5.2V10.032C77.5535 12.848 76.2308 14.256 73.5855 14.256H70.9935C70.8228 14.256 70.6735 14.32 70.5455 14.448C70.4388 14.576 70.3855 14.7253 70.3855 14.896ZM84.9413 18.288H89.9013V22H80.4613V1.296H89.9013V4.944H84.9413V9.808H89.5813V13.328H84.9413V18.288ZM100.332 0.976C102.978 0.976 104.3 2.384 104.3 5.2V22H99.8205V15.056H96.5885V22H92.1085V5.2C92.1085 2.384 93.4312 0.976 96.0765 0.976H100.332ZM96.5885 11.6H99.8205V4.656C99.8205 4.48533 99.7565 4.336 99.6285 4.208C99.5218 4.08 99.3832 4.016 99.2125 4.016H97.1965C97.0258 4.016 96.8765 4.08 96.7485 4.208C96.6418 4.336 96.5885 4.48533 96.5885 4.656V11.6ZM106.072 5.104V1.296H117.272V5.104H113.912V22H109.432V5.104H106.072Z" fill="white"/>
</svg>
